<svg width="32" height="16" fill="none" xmlns="http://www.w3.org/2000/svg"><path d="M7.816 8.56l-.176-.648c-.091-.31-.179-.63-.264-.96a26.07 26.07 0 00-.256-.976h-.032a34.6 34.6 0 01-.504 1.936l-.176.648h1.408zm.256.92h-1.92L5.736 11h-1.2l1.896-5.92h1.392L9.728 11h-1.24l-.416-1.52zm2.109-4.4h1.184V11H10.18V5.08zm5.149.984h-1.664V5.08h4.528v.984h-1.68V11H15.33V6.064zm4.76 0h-1.664V5.08h4.528v.984h-1.68V11H20.09V6.064zm5.086 5.048c-.4 0-.79-.075-1.168-.224a3.048 3.048 0 01-.992-.64l.68-.816c.213.197.45.357.712.48.267.117.53.176.792.176.31 0 .544-.061.704-.184a.592.592 0 00.24-.496.558.558 0 00-.064-.28.65.65 0 00-.184-.2 1.249 1.249 0 00-.28-.16 48.988 48.988 0 00-.36-.16l-.792-.336a3.163 3.163 0 01-.44-.232 1.72 1.72 0 01-.384-.328 1.734 1.734 0 01-.272-.448 1.54 1.54 0 01-.104-.584c0-.24.05-.464.152-.672.101-.213.243-.395.424-.544a1.95 1.95 0 01.648-.36c.25-.09.526-.136.824-.136.347 0 .683.067 1.008.2.325.128.608.315.848.56l-.6.744a2.34 2.34 0 00-.584-.36 1.715 1.715 0 00-.672-.128c-.261 0-.47.056-.624.168a.52.52 0 00-.232.456c0 .107.024.197.072.272.053.075.12.141.2.2.085.059.184.112.296.16.112.048.232.096.36.144l.776.328a2.8 2.8 0 01.488.256c.15.096.275.208.376.336.107.128.187.277.24.448.059.165.088.355.088.568 0 .24-.05.47-.152.688a1.65 1.65 0 01-.424.576 2.13 2.13 0 01-.688.384c-.267.096-.57.144-.912.144z" fill="#A451F7"/><rect x=".5" y=".5" width="31" height="15" rx="7.5" stroke="#A451F7"/></svg>